<?xml version="1.0" standalone="no"?>
<!DOCTYPE svg PUBLIC "-//W3C//DTD SVG 20010904//EN"
 "http://www.w3.org/TR/2001/REC-SVG-20010904/DTD/svg10.dtd">
<svg version="1.0" xmlns="http://www.w3.org/2000/svg"
 width="192.000000pt" height="192.000000pt" viewBox="0 0 192.000000 192.000000"
 preserveAspectRatio="xMidYMid meet">
<metadata>
Created by potrace 1.10, written by Peter Selinger 2001-2011
</metadata>
<g transform="translate(0.000000,192.000000) scale(0.100000,-0.100000)"
fill="#000000" stroke="none">
<path d="M775 1843 c-308 -65 -564 -295 -662 -594 -17 -52 -34 -113 -38 -135
l-6 -42 106 -7 c58 -4 108 -5 111 -2 3 3 12 33 20 68 42 179 173 343 346 434
286 151 652 67 848 -193 258 -344 136 -831 -255 -1018 -208 -100 -470 -80
-661 50 -125 85 -251 262 -278 392 -5 23 -22 42 -67 73 l-60 42 -39 -43 c-66
-73 -66 -73 -30 -179 83 -248 244 -428 483 -539 133 -61 200 -75 372 -74 163
0 212 9 344 64 359 148 587 537 541 924 -47 392 -329 701 -713 780 -95 20
-268 19 -362 -1z m335 -30 c156 -27 316 -109 446 -230 44 -40 151 -183 165
-221 5 -12 17 -41 28 -65 16 -37 33 -82 36 -97 0 -3 7 -30 15 -60 18 -70 19
-277 1 -350 -64 -269 -223 -471 -468 -595 -131 -67 -230 -86 -405 -81 -130 3
-151 7 -231 35 -155 56 -257 121 -359 228 -99 105 -192 274 -205 375 -6 40 26
98 54 98 25 0 70 -37 81 -67 46 -124 60 -156 98 -213 122 -188 344 -308 579
-316 191 -6 355 56 496 188 105 98 170 203 208 337 17 62 20 95 17 200 -4 141
-6 152 -38 236 -40 104 -88 176 -174 261 -65 66 -100 91 -166 123 -131 62
-210 80 -336 76 -132 -4 -155 -7 -235 -39 -35 -15 -67 -26 -71 -26 -21 0 -129
-81 -187 -139 -77 -78 -138 -176 -177 -286 l-28 -80 -58 0 c-78 0 -87 14 -61
92 50 154 111 259 214 367 193 201 486 297 761 249z"/>
<path d="M833 1445 c-165 -45 -308 -188 -353 -353 -18 -69 -14 -198 9 -273 75
-243 325 -390 573 -338 127 26 259 120 325 230 52 88 55 81 -55 122 -54 20
-104 37 -109 37 -6 0 -13 -10 -17 -22 -9 -39 -66 -97 -120 -126 -68 -36 -179
-38 -242 -5 -105 56 -157 138 -156 249 1 191 183 320 365 258 54 -18 129 -81
146 -122 9 -22 28 -36 74 -56 34 -14 65 -26 68 -26 4 0 26 25 49 56 l42 55
-29 57 c-59 118 -180 217 -312 256 -66 19 -187 20 -258 1z m285 -51 c102 -38
172 -94 225 -181 39 -61 41 -83 14 -117 -22 -27 -25 -28 -59 -17 -24 8 -56 34
-93 76 -73 83 -141 118 -238 122 -58 2 -79 -2 -133 -27 -71 -32 -108 -68 -150
-144 -26 -46 -29 -60 -29 -146 1 -86 3 -100 28 -142 73 -123 214 -184 357
-154 49 10 107 49 161 108 l45 50 50 -17 c77 -25 79 -27 60 -66 -23 -48 -99
-123 -166 -164 -79 -48 -165 -68 -265 -63 -69 4 -92 10 -158 43 -96 48 -173
122 -214 207 -48 100 -62 212 -37 300 8 29 15 59 16 66 1 6 5 12 10 12 4 0 7
3 6 8 -5 19 41 91 91 142 125 126 312 167 479 104z"/>
<path d="M899 1031 c-47 -48 -38 -116 21 -146 44 -23 69 -18 106 19 36 36 41
59 22 101 -26 58 -103 71 -149 26z m93 -24 c53 -41 -3 -118 -59 -81 -30 19
-30 58 -1 78 27 19 38 19 60 3z"/>
</g>
</svg>
